HIERARCHY
ROOT Hips
{
	OFFSET -0.001795 -0.223333 0.028219
	CHANNELS 6 Xposition Yposition Zposition Zrotation Yrotation Xrotation 
	JOINT LeftUpLeg
	{
		OFFSET 0.069520 -0.091406 -0.006815
		CHANNELS 3 Zrotation Yrotation Xrotation
		JOINT LeftLeg
		{
			OFFSET 0.034277 -0.375199 -0.004496
			CHANNELS 3 Zrotation Yrotation Xrotation
			JOINT LeftFoot
			{
				OFFSET -0.013596 -0.397961 -0.043693
				CHANNELS 3 Zrotation Yrotation Xrotation
				JOINT LeftToe
				{
					OFFSET 0.026358 -0.055791 0.119288
					CHANNELS 3 Zrotation Yrotation Xrotation
					End Site
					{
						OFFSET 0.000000 0.000000 0.000000
					}
				}
			}
		}
	}
	JOINT RightUpLeg
	{
		OFFSET -0.067670 -0.090522 -0.004320
		CHANNELS 3 Zrotation Yrotation Xrotation
		JOINT RightLeg
		{
			OFFSET -0.038290 -0.382569 -0.008850
			CHANNELS 3 Zrotation Yrotation Xrotation
			JOINT RightFoot
			{
				OFFSET 0.015774 -0.398415 -0.042312
				CHANNELS 3 Zrotation Yrotation Xrotation
				JOINT RightToe
				{
					OFFSET -0.025372 -0.048144 0.123348
					CHANNELS 3 Zrotation Yrotation Xrotation
					End Site
					{
						OFFSET 0.000000 0.000000 0.000000
					}
				}
			}
		}
	}
	JOINT Spine
	{
		OFFSET -0.002533 0.108963 -0.026696
		CHANNELS 3 Zrotation Yrotation Xrotation
		JOINT Spine1
		{
			OFFSET 0.005487 0.135180 0.001092
			CHANNELS 3 Zrotation Yrotation Xrotation
			JOINT Spine2
			{
				OFFSET 0.001457 0.052922 0.025425
				CHANNELS 3 Zrotation Yrotation Xrotation
				JOINT Neck
				{
					OFFSET -0.002778 0.213870 -0.042857
					CHANNELS 3 Zrotation Yrotation Xrotation
					JOINT Head
					{
						OFFSET 0.005152 0.064970 0.051349
						CHANNELS 3 Zrotation Yrotation Xrotation
						End Site
						{
							OFFSET 0.000000 0.000000 0.000000
						}
					}
				}
				JOINT LeftShoulder
				{
					OFFSET 0.078845 0.121749 -0.034090
					CHANNELS 3 Zrotation Yrotation Xrotation
					JOINT LeftArm
					{
						OFFSET 0.090977 0.030469 -0.008868
						CHANNELS 3 Zrotation Yrotation Xrotation
						JOINT LeftForeArm
						{
							OFFSET 0.259612 -0.012772 -0.027456
							CHANNELS 3 Zrotation Yrotation Xrotation
							JOINT LeftHand
							{
								OFFSET 0.249234 0.008986 -0.001171
								CHANNELS 3 Zrotation Yrotation Xrotation
								End Site
								{
									OFFSET 0.000000 0.000000 0.000000
								}
							}
						}
					}
				}
				JOINT RightShoulder
				{
					OFFSET -0.081759 0.118833 -0.038615
					CHANNELS 3 Zrotation Yrotation Xrotation
					JOINT RightArm
					{
						OFFSET -0.096012 0.032551 -0.009143
						CHANNELS 3 Zrotation Yrotation Xrotation
						JOINT RightForeArm
						{
							OFFSET -0.253742 -0.013329 -0.021401
							CHANNELS 3 Zrotation Yrotation Xrotation
							JOINT RightHand
							{
								OFFSET -0.255298 0.007772 -0.005559
								CHANNELS 3 Zrotation Yrotation Xrotation
								End Site
								{
									OFFSET 0.000000 0.000000 0.000000
								}
							}
						}
					}
				}
			}
		}
	}
}
MOTION
Frames: 10
Frame Time: 0.050000
-0.211609 0.935315 -0.066418 2.828224 22.608213 25.761266 10.685295 -2.726556 -30.178889 4.196319 0.125311 -7.066895 -11.768765 -5.789368 22.118554 0.000000 0.000000 0.000000 -5.636183 -1.306751 -39.964884 -0.320350 0.143847 8.849606 11.587466 -7.870260 72.407478 0.000000 0.000000 0.000000 3.400731 -3.941828 26.391184 3.532568 -1.522191 -1.733415 -9.952926 6.729378 0.060057 16.908202 -6.512783 -17.047079 0.000000 0.000000 0.000000 -2.290208 -42.118111 14.394541 8.562387 -49.768102 -8.723118 39.001853 -33.180501 -10.831463 0.000000 0.000000 0.000000 1.807963 22.752964 11.502777 2.796401 33.553798 -1.118517 -35.442241 6.293223 0.466659 0.000000 0.000000 0.000000 
-0.206929 0.939422 -0.059103 2.912394 24.585965 22.481649 10.007125 -2.520511 -26.811617 3.800358 0.110499 -6.800002 -13.188415 -7.493428 22.100688 0.000000 0.000000 0.000000 -5.660617 -1.105722 -35.464855 -0.739266 0.186197 9.257801 12.120831 -6.986605 71.134106 0.000000 0.000000 0.000000 3.947626 -3.564622 23.402796 2.148082 -0.760694 -3.191973 -10.396862 5.343362 0.412884 16.295761 -6.294393 -16.809411 0.000000 0.000000 0.000000 -3.134658 -38.261880 12.615408 4.855251 -49.712843 -6.939618 47.402372 -38.990433 -16.934730 0.000000 0.000000 0.000000 1.951845 21.640496 10.771441 1.850506 33.370473 -1.227413 -41.026028 6.019965 0.806505 0.000000 0.000000 0.000000 
-0.199361 0.942199 -0.049564 2.710994 26.408773 19.780029 9.724532 -2.269778 -23.756680 3.375108 0.107365 -6.797825 -14.358871 -9.097895 21.813348 0.000000 0.000000 0.000000 -5.548321 -0.880722 -31.604985 3.292611 -1.206839 14.934210 -5.117766 -11.777570 41.416806 0.000000 0.000000 0.000000 4.343726 -2.899215 19.295893 0.706538 -0.003205 -4.674556 -10.650875 5.404876 0.930975 15.233152 -5.886001 -15.934072 0.000000 0.000000 0.000000 -4.250864 -33.799012 10.394293 1.314412 -51.812782 -5.856325 58.051778 -44.664069 -25.886282 0.000000 0.000000 0.000000 -0.234619 18.283342 8.470467 6.024150 34.575616 -0.067801 -48.918937 6.795826 1.372577 0.000000 0.000000 0.000000 
-0.189390 0.944603 -0.039104 2.813919 27.742033 17.114333 9.036223 -1.992541 -20.626203 3.022101 0.088297 -6.308431 -15.293412 -10.690492 21.208135 0.000000 0.000000 0.000000 -5.198941 -0.466988 -26.927529 5.492703 -2.334834 17.595577 -11.154763 -19.330098 26.327824 0.000000 0.000000 0.000000 4.565427 -2.263485 15.603983 -1.172346 0.831593 -5.571664 -10.578812 5.256268 0.814052 13.216979 -4.152363 -17.457996 0.000000 0.000000 0.000000 -4.297059 -28.148400 7.929448 -2.619833 -54.458829 -4.586365 69.937323 -47.849686 -35.840207 0.000000 0.000000 0.000000 -0.740083 15.688204 7.078146 10.098725 34.578104 0.966484 -56.988780 11.203953 0.156080 0.000000 0.000000 0.000000 
-0.178887 0.945073 -0.029712 2.665950 29.998599 14.929350 8.503878 -1.744194 -17.643567 3.058622 0.094584 -7.108661 -16.669258 -12.684953 20.954381 0.000000 0.000000 0.000000 -5.115723 -0.276066 -22.825927 5.518064 -2.389928 16.552405 -12.445626 -20.726958 26.906892 0.000000 0.000000 0.000000 5.537945 -1.791450 11.578591 -2.328510 1.340389 -6.207855 -11.502567 6.103633 -0.012254 13.150394 -4.541552 -15.417251 0.000000 0.000000 0.000000 -5.010189 -24.915235 6.232432 -5.852356 -57.225901 -3.618034 76.680448 -48.810811 -42.064536 0.000000 0.000000 0.000000 -0.782557 12.248756 5.611744 15.648998 34.197516 2.394725 -62.608430 16.466626 -1.741342 0.000000 0.000000 0.000000 
-0.169991 0.943476 -0.022905 2.762999 31.444239 13.262721 8.269298 -1.552147 -15.449550 2.477661 0.085697 -7.248035 -17.409292 -14.303945 20.218636 0.000000 0.000000 0.000000 -4.998015 -0.087398 -18.991997 5.134720 -2.143980 14.771074 -13.516573 -22.179499 26.288547 0.000000 0.000000 0.000000 5.816816 -1.283893 8.059718 -3.047439 1.663420 -6.778446 -12.208609 6.607155 -0.843223 11.767605 -3.409116 -15.909895 0.000000 0.000000 0.000000 -4.174645 -22.043715 5.133825 -8.113578 -59.031715 -3.074750 82.961039 -44.189183 -43.279812 0.000000 0.000000 0.000000 1.615996 9.489275 5.106931 19.812984 34.502731 3.377597 -67.371612 24.174360 -6.023724 0.000000 0.000000 0.000000 
-0.164094 0.941296 -0.018978 2.538346 32.591103 12.072870 7.831426 -1.433488 -14.079351 3.091831 0.079346 -7.416680 -17.931389 -15.739165 19.437020 0.000000 0.000000 0.000000 -4.805495 -0.016598 -17.213206 5.120148 -2.221013 14.785726 -14.213130 -23.129855 26.105465 0.000000 0.000000 0.000000 4.726156 -0.738834 5.028895 -3.098712 1.702920 -6.696990 -12.003778 6.699208 -2.109690 11.333498 -3.475069 -14.689335 0.000000 0.000000 0.000000 -4.136801 -19.931088 4.313896 -8.879160 -61.408556 -3.048503 84.283451 -38.347359 -39.236869 0.000000 0.000000 0.000000 3.221643 6.976662 4.358944 25.200968 35.204997 5.021482 -70.253505 31.327332 -10.785786 0.000000 0.000000 0.000000 
-0.160942 0.939215 -0.017528 1.878585 33.484109 10.772509 8.067924 -1.433755 -14.006103 3.480930 0.044077 -5.816753 -18.026846 -17.118668 18.183767 0.000000 0.000000 0.000000 -4.273224 0.132790 -15.132882 5.338706 -2.187054 13.518778 -14.793859 -24.076635 25.586168 0.000000 0.000000 0.000000 3.646821 -0.410695 2.916067 -2.709685 1.553715 -6.159626 -12.062528 6.163053 -3.547746 10.467572 -2.680261 -15.599975 0.000000 0.000000 0.000000 -2.955298 -16.925644 3.637104 -8.723982 -64.354064 -3.717753 84.518771 -32.736315 -34.405814 0.000000 0.000000 0.000000 5.869682 4.382558 3.729114 29.427302 36.995962 6.682319 -73.877892 37.660247 -16.181187 0.000000 0.000000 0.000000 
-0.159567 0.937643 -0.018015 1.392311 32.522883 9.868905 8.216384 -1.356242 -13.411063 3.820645 0.018990 -5.149713 -17.224854 -17.133165 16.884731 0.000000 0.000000 0.000000 -3.688828 0.280637 -14.657239 4.723757 -1.974865 13.807559 -14.334971 -23.837074 24.578022 0.000000 0.000000 0.000000 2.920818 -0.257045 1.761020 -2.984415 1.647386 -5.982012 -11.491996 6.599269 -4.628948 9.957903 -2.622655 -14.855478 0.000000 0.000000 0.000000 -2.281352 -15.814072 3.488823 -4.530199 -65.276063 -6.340559 82.971751 -26.900664 -28.330469 0.000000 0.000000 0.000000 6.898870 3.595377 3.525308 31.375264 39.595317 8.208327 -76.807207 41.345238 -20.261803 0.000000 0.000000 0.000000 
-0.158329 0.936531 -0.019640 0.783220 31.714704 9.080327 8.633803 -1.329332 -13.279284 3.887825 -0.020066 -4.172497 -16.467270 -17.083027 15.724082 0.000000 0.000000 0.000000 -3.112057 0.411246 -14.192727 4.327806 -1.792151 13.671825 -13.930509 -23.567847 23.817779 0.000000 0.000000 0.000000 2.838240 -0.173230 0.607196 -3.381616 1.807125 -6.166399 -11.287181 7.395584 -5.192655 9.235407 -1.857070 -15.990840 0.000000 0.000000 0.000000 -2.000748 -15.559919 3.474981 -2.094661 -65.446478 -7.885149 81.521670 -24.077385 -25.240241 0.000000 0.000000 0.000000 6.312134 4.387991 3.803129 30.584155 42.501781 9.147506 -77.785116 38.788158 -18.875108 0.000000 0.000000 0.000000 
